<?xml version="1.0"?>
<svg xmlns="http://www.w3.org/2000/svg" id="Capa_1" enable-background="new 0 0 512 512" height="512" viewBox="0 0 512 512" width="512"><g><path d="m15.003 300.464c24.813 0 45.001-20.188 45.001-45.001v-43.642c0-8.284-6.716-15-15-15s-15 6.716-15 15v43.642c0 8.271-6.729 15.001-15.001 15.001-8.284 0-15 6.716-15 15s6.716 15 15 15z" data-original="#000000" class="active-path" data-old_color="#000000" style="fill:#3F6DAB"/><path d="m490.498 385.434c-5.995 2.882-12.679 4.415-19.36 4.434l-51.206.249c1.588-4.587 2.462-9.504 2.462-14.624 0-11.446-4.318-21.899-11.402-29.83 7.085-7.931 11.402-18.383 11.402-29.829 0-11.488-4.347-21.976-11.478-29.917 7.13-7.941 11.478-18.429 11.478-29.917 0-9.25-2.817-17.854-7.638-25.002 4.819-7.107 7.638-15.675 7.638-24.89v-39.418c0-1.95-.384-3.807-1.061-5.517-2.199-5.552-7.605-9.483-13.939-9.483-8.284 0-15 6.716-15 15v39.418c0 7.976-6.489 14.465-14.465 14.465s-14.465-6.489-14.465-14.472l-.026-59.413c-.003-6.68 2.596-12.96 7.318-17.685s11.001-7.326 17.682-7.326h69.435c7.457 0 14.46 3.293 19.217 9.035l8.354 10.085c5.284 6.379 14.74 7.269 21.12 1.983 6.38-5.284 7.268-14.74 1.983-21.12l-8.354-10.085c-10.475-12.646-25.899-19.898-42.32-19.898h-69.435c-14.696 0-28.511 5.724-38.899 16.117-10.389 10.394-16.107 24.211-16.101 38.907l.002 4.809h-47.616c-11.444 0-21.895 4.316-29.825 11.398-7.93-7.083-18.381-11.398-29.825-11.398h-47.616l.002-4.809c.006-14.696-5.711-28.514-16.101-38.907s-24.204-16.117-38.899-16.117h-69.434c-16.42 0-31.846 7.253-42.321 19.898l-8.353 10.085c-5.284 6.38-4.396 15.836 1.984 21.12 6.381 5.284 15.836 4.397 21.121-1.983l8.352-10.085c4.757-5.742 11.761-9.035 19.218-9.035h69.435c6.68 0 12.959 2.602 17.682 7.326s7.321 11.005 7.318 17.685l-.026 59.42c0 7.976-6.489 14.465-14.465 14.465s-14.465-6.489-14.465-14.465v-39.418c0-8.284-6.716-15-15-15-6.334 0-11.74 3.932-13.939 9.483-.677 1.709-1.061 3.567-1.061 5.517v39.418c0 9.215 2.819 17.783 7.638 24.89-4.82 7.147-7.638 15.751-7.638 25.002 0 11.488 4.347 21.976 11.478 29.917-7.13 7.941-11.478 18.429-11.478 29.917 0 11.446 4.318 21.898 11.402 29.829-7.085 7.931-11.402 18.384-11.402 29.83 0 5.12.874 10.037 2.462 14.624l-51.237-.249c-6.65-.019-13.334-1.552-19.329-4.434-7.468-3.588-16.429-.444-20.018 7.021-3.589 7.466-.446 16.429 7.021 20.018 9.999 4.806 21.147 7.363 32.21 7.395l185.459.455c11.444 0 21.895-4.316 29.825-11.398 7.93 7.083 18.381 11.398 29.825 11.398l185.429-.455c11.093-.031 22.241-2.589 32.241-7.395 7.467-3.589 10.61-12.551 7.021-20.018-3.588-7.465-12.549-10.609-20.017-7.021zm-204.673 4.889c-8.177 0-14.83-6.652-14.83-14.83s6.652-14.83 14.83-14.83h91.74c8.177 0 14.83 6.652 14.83 14.83s-6.652 14.83-14.83 14.83zm-151.39 0c-8.177 0-14.83-6.652-14.83-14.83s6.652-14.83 14.83-14.83h91.74c8.137 0 14.759 6.589 14.824 14.712 0 .04-.003.078-.003.118s.003.078.003.118c-.064 8.123-6.686 14.712-14.824 14.712zm44.111-208.813h47.629c8.137 0 14.759 6.589 14.824 14.712 0 .04-.003.078-.003.118s.003.078.003.118c-.064 8.123-6.686 14.712-14.824 14.712h-47.936c.189-1.661.296-3.345.296-5.056zm154.919 24.598c0 1.713.107 3.4.297 5.063h-47.936c-8.177 0-14.83-6.652-14.83-14.83s6.652-14.83 14.83-14.83h47.629zm-213.86 109.725c0-8.178 6.652-14.83 14.83-14.83h91.74c8.137 0 14.759 6.589 14.824 14.712 0 .04-.003.078-.003.118s.003.078.003.118c-.064 8.122-6.686 14.711-14.824 14.711h-91.74c-8.178.001-14.83-6.652-14.83-14.829zm1.903-67.079c3.986 1.176 8.199 1.818 12.561 1.818 10.284 0 19.756-3.519 27.296-9.402h64.809c8.137 0 14.759 6.589 14.824 14.711 0 .04-.003.078-.003.118s.003.078.003.118c-.064 8.123-6.686 14.712-14.824 14.712h-91.74c-8.177 0-14.83-6.652-14.83-14.83.001-2.631.697-5.1 1.904-7.245zm229.126-7.584c7.541 5.884 17.012 9.402 27.296 9.402 4.362 0 8.575-.642 12.561-1.818 1.207 2.145 1.904 4.614 1.904 7.245 0 8.178-6.652 14.83-14.83 14.83h-91.74c-8.177 0-14.83-6.652-14.83-14.83 0-8.177 6.652-14.829 14.83-14.829zm26.931 89.493h-91.74c-8.177 0-14.83-6.652-14.83-14.829 0-8.178 6.652-14.83 14.83-14.83h91.74c8.177 0 14.83 6.652 14.83 14.83 0 8.176-6.652 14.829-14.83 14.829z" data-original="#000000" class="active-path" data-old_color="#000000" style="fill:#3F6DAB"/><path d="m466.995 196.822c-8.284 0-15 6.716-15 15v43.642c0 24.813 20.188 45.001 45.001 45.001 8.284 0 15-6.716 15-15s-6.716-15-15-15c-8.271 0-15.001-6.729-15.001-15.001v-43.642c0-8.284-6.715-15-15-15z" data-original="#000000" class="active-path" data-old_color="#000000" style="fill:#3F6DAB"/></g> </svg>
