<?xml version="1.0"?>
<svg xmlns="http://www.w3.org/2000/svg" xmlns:xlink="http://www.w3.org/1999/xlink" version="1.1" id="Capa_1" x="0px" y="0px" viewBox="0 0 512 512" style="enable-background:new 0 0 512 512;" xml:space="preserve" width="512px" height="512px" class=""><g><g>
	<path d="M512,412.502V22.498H0v390.004h161v17c0,16.542-13.458,30-30,30H46v30h420v-30h-85c-16.542,0-30-13.458-30-30v-17H512z    M482,52.498v270.004H30V52.498H482z M30,352.502h452v30H30V352.502z M329.072,459.502H182.928c5.123-8.833,8.072-19.075,8.072-30   v-17h130v17C321,440.427,323.949,450.669,329.072,459.502z" data-original="#000000" class="active-path" data-old_color="#000000" fill="#202095"/>
	<path d="M166,262.502h180v30h30V185.063L341.812,82.498H170.188L136,185.068v107.434h30V262.502z M166,232.502v-30h180v30H166z    M320.188,112.498l20.001,60.004H171.811l20-60.004H320.188z" data-original="#000000" class="active-path" data-old_color="#000000" fill="#202095"/>
</g></g> </svg>
