<?xml version="1.0"?>
<svg xmlns="http://www.w3.org/2000/svg" id="Outline" viewBox="0 0 512 512" width="512px" height="512px"><g><path d="M24,400h89.911a55.993,55.993,0,0,0,110.839,0H344.581a55.992,55.992,0,0,0,110.838,0H488a8,8,0,0,0,8-8V248a8,8,0,0,0-8-8H448V224h40a8,8,0,0,0,8-8V184a8,8,0,0,0-8-8H464V160h24a8,8,0,0,0,8-8V120a8,8,0,0,0-8-8h-8V88a24.027,24.027,0,0,0-24-24H104A24.027,24.027,0,0,0,80,88v24H72a8,8,0,0,0-8,8v32a8,8,0,0,0,8,8H384v16H312a8,8,0,0,0-8,8v8H232a55.82,55.82,0,0,0-40,16.862V184a8,8,0,0,0-8-8H85.22a39.784,39.784,0,0,0-36.695,24H24a8,8,0,0,0-8,8v32a8,8,0,0,0,16,0V216H45.054L35.6,320H24a8,8,0,0,0-8,8v64A8,8,0,0,0,24,400Zm376,32a40,40,0,1,1,40-40A40.045,40.045,0,0,1,400,432Zm80-304v16H463.2a39.828,39.828,0,0,0-7.217-16ZM432,80h24a8.009,8.009,0,0,1,8,8v24H432Zm16,72v24H400V152a24,24,0,0,1,48,0ZM384,80h32v32H384Zm-48,0h32v32H336Zm-48,0h32v32H288Zm-48,0h32v32H240Zm-48,0h32v32H192Zm-48,0h32v32H144ZM96,88a8.009,8.009,0,0,1,8-8h24v32H96ZM80,144V128H392.022a39.828,39.828,0,0,0-7.217,16Zm240,56v-8H480v16H320Zm112,24v16H416V224Zm-32,0v16H384V224Zm-32,0v16H352V224Zm-48,0h16v16H320Zm0,32H480v16H320Zm0,32H480v96H455.419a55.992,55.992,0,0,0-110.838,0H320ZM80.367,384H64V368H83.327A87.478,87.478,0,0,0,80.367,384Zm33.544,0H96.455A71.895,71.895,0,0,1,176,320.456v15.955A55.882,55.882,0,0,0,113.911,384ZM304,384H224.75a55.552,55.552,0,0,0-4.834-16H304ZM232,208a41.311,41.311,0,0,1,6.2.475A40.258,40.258,0,0,1,272,248v40H256V248a24.012,24.012,0,1,0-16,22.624V287.2a40.036,40.036,0,0,1-47.522-32.974A41.41,41.41,0,0,1,192,248,40.045,40.045,0,0,1,232,208Zm40,96v16H256V304Zm-32-56a8,8,0,1,1-8-8A8.009,8.009,0,0,1,240,248Zm-48,39.183c1.087,1.109,2.218,2.181,3.4,3.2A55.945,55.945,0,0,0,240,303.422V328a8,8,0,0,0,8,8h32a8,8,0,0,0,8-8V248a55.992,55.992,0,0,0-13.614-36.6q-1.533-1.775-3.2-3.4H304V352H208.468A56.205,56.205,0,0,0,192,340.812ZM209.33,392a40,40,0,1,1-40-40A40.045,40.045,0,0,1,209.33,392ZM61.317,213.825A23.887,23.887,0,0,1,85.22,192H176V304.379c-2.653-.24-5.323-.379-8-.379a88.1,88.1,0,0,0-78.372,48H64V328a8,8,0,0,0-8-8H51.67ZM32,360V336H48v48H32Z" data-original="#000000" class="active-path" data-old_color="#000000" fill="#3E5D9B"/><path d="M72,288h80a8,8,0,0,0,8-8V216a8,8,0,0,0-8-8H94.125A24.038,24.038,0,0,0,70.31,229.023l-6.248,49.985A8,8,0,0,0,72,288Zm14.186-56.992A8.013,8.013,0,0,1,94.125,224H144v48H81.062Z" data-original="#000000" class="active-path" data-old_color="#000000" fill="#3E5D9B"/><path d="M145.33,392a24,24,0,1,0,24-24A24.027,24.027,0,0,0,145.33,392Zm32,0a8,8,0,1,1-8-8A8.009,8.009,0,0,1,177.33,392Z" data-original="#000000" class="active-path" data-old_color="#000000" fill="#3E5D9B"/><path d="M400,368a24,24,0,1,0,24,24A24.027,24.027,0,0,0,400,368Zm0,32a8,8,0,1,1,8-8A8.009,8.009,0,0,1,400,400Z" data-original="#000000" class="active-path" data-old_color="#000000" fill="#3E5D9B"/><circle cx="424" cy="152" r="8" data-original="#000000" class="active-path" data-old_color="#000000" fill="#3E5D9B"/></g> </svg>
