<?xml version="1.0"?>
<svg xmlns="http://www.w3.org/2000/svg" height="512px" viewBox="0 0 496 496" width="512px" class=""><g><path d="m216 208c0 4.417969-3.582031 8-8 8s-8-3.582031-8-8 3.582031-8 8-8 8 3.582031 8 8zm0 0" data-original="#000000" class="active-path" data-old_color="#000000" fill="#3E5D9B"/><path d="m296 208c0 4.417969-3.582031 8-8 8s-8-3.582031-8-8 3.582031-8 8-8 8 3.582031 8 8zm0 0" data-original="#000000" class="active-path" data-old_color="#000000" fill="#3E5D9B"/><path d="m248 0c-136.742188 0-248 111.257812-248 248s111.257812 248 248 248 248-111.257812 248-248-111.257812-248-248-248zm8 24c0 4.40625-3.59375 8-8 8s-8-3.59375-8-8 3.59375-8 8-8 8 3.59375 8 8zm35.097656 312.777344 20.664063 4.132812c-1.113281 11.480469-6.121094 22.136719-14.386719 30.402344l-2.128906 2.128906-21.351563-16.015625zm-11.097656-11.671875-32 38.398437-32-38.398437v-11.21875c9.9375 3.898437 20.703125 6.113281 32 6.113281s22.0625-2.214844 32-6.113281zm-75.097656 11.671875 17.203125 20.636718-21.351563 16.019532-2.128906-2.128906c-8.265625-8.265626-13.273438-18.921876-14.386719-30.402344zm43.097656-32.777344c-39.695312 0-72-32.304688-72-72v-56.207031c6.703125 5.078125 14.960938 8.207031 24 8.207031h96c9.039062 0 17.296875-3.128906 24-8.207031v56.207031c0 39.695312-32.304688 72-72 72zm-88-73.472656c-9.289062-3.3125-16-12.113282-16-22.527344s6.710938-19.214844 16-22.527344zm192-54.320313c-4.671875-3.535156-10.054688-6.183593-16-7.390625v-16.816406h16zm-208-24.207031h16v16.808594c-5.945312 1.214844-11.328125 3.855468-16 7.390625zm33.472656 0h141.046875c-3.3125 9.289062-12.113281 16-22.527343 16h-95.992188c-10.414062 0-19.214844-6.710938-22.527344-16zm158.527344 33.472656c9.289062 3.3125 16 12.113282 16 22.527344s-6.710938 19.214844-16 22.527344zm-190.640625-49.472656c7.738281-49.761719 50.746094-88 102.640625-88s94.902344 38.238281 102.640625 88zm-129.359375 112c0-120.207031 91.894531-219.328125 209.121094-230.863281-.65625 2.191406-1.121094 4.464843-1.121094 6.863281 0 3.609375.855469 7 2.289062 10.070312-55.824218 10.257813-98.289062 59.1875-98.289062 117.929688v56c0 19.800781 14.503906 36.175781 33.425781 39.335938 4.300781 24.359374 18.613281 45.273437 38.574219 58.328124v15.785157l-81.40625 16.285156c-22.363281 4.457031-38.59375 24.257813-38.59375 47.058594v22.949219c-39.609375-41.628907-64-97.871094-64-159.742188zm152 217.777344v-73.777344h-16v67.121094c-20.425781-9.328125-39.257812-21.511719-56-36.074219v-38.253906c0-15.199219 10.824219-28.402344 25.726562-31.378907l46.816407-9.359374c1.769531 14.5625 8.242187 28.042968 18.769531 38.578124l11.933594 11.933594 33.113281-24.832031 15.640625 18.761719 15.640625-18.769532 33.113281 24.832032 11.933594-11.933594c10.535156-10.535156 17.007812-24.015625 18.769531-38.578125l46.816407 9.359375c14.902343 2.984375 25.726562 16.1875 25.726562 31.386719v38.253906c-16.742188 14.5625-35.574219 26.753906-56 36.074219v-67.121094h-16v73.777344c-24.953125 9.191406-51.894531 14.222656-80 14.222656s-55.046875-5.03125-80-14.222656zm248-58.023438v-22.953125c0-22.800781-16.230469-42.601562-38.585938-47.066406l-81.414062-16.292969v-15.785156c19.960938-13.046875 34.265625-33.96875 38.574219-58.328125 18.921875-3.152344 33.425781-19.527344 33.425781-39.328125v-56c0-58.742188-42.464844-107.671875-98.289062-117.929688 1.433593-3.070312 2.289062-6.460937 2.289062-10.070312 0-2.398438-.464844-4.671875-1.121094-6.863281 117.226563 11.535156 209.121094 110.65625 209.121094 230.863281 0 61.871094-24.390625 118.113281-64 159.753906zm0 0" data-original="#000000" class="active-path" data-old_color="#000000" fill="#3E5D9B"/><path d="m248 60.6875-16.96875 16.96875c-4.535156 4.527344-7.03125 10.558594-7.03125 16.976562v1.367188c0 13.230469 10.769531 24 24 24s24-10.769531 24-24v-1.367188c0-6.410156-2.496094-12.441406-7.03125-16.976562zm8 35.3125c0 4.40625-3.59375 8-8 8s-8-3.59375-8-8v-1.367188c0-2.136718.832031-4.152343 2.34375-5.664062l5.65625-5.65625 5.65625 5.65625c1.511719 1.511719 2.34375 3.527344 2.34375 5.664062zm0 0" data-original="#000000" class="active-path" data-old_color="#000000" fill="#3E5D9B"/><path d="m240 408h16v16h-16zm0 0" data-original="#000000" class="active-path" data-old_color="#000000" fill="#3E5D9B"/><path d="m240 448h16v16h-16zm0 0" data-original="#000000" class="active-path" data-old_color="#000000" fill="#3E5D9B"/><path d="m248 264c-8.824219 0-16-7.175781-16-16h-16c0 17.648438 14.351562 32 32 32s32-14.351562 32-32h-16c0 8.824219-7.175781 16-16 16zm0 0" data-original="#000000" class="active-path" data-old_color="#000000" fill="#3E5D9B"/></g> </svg>
