<?xml version="1.0"?>
<svg xmlns="http://www.w3.org/2000/svg" id="Outline" viewBox="0 0 512 512" width="512px" height="512px" class=""><g><path d="M495.774,126.113a8,8,0,0,0-4.7-5.5L424.615,92.923A167.144,167.144,0,0,0,360,80H266.886a168,168,0,0,0-150.264,92.868l-3.777,7.554.007,0c-.07.14-.143.277-.206.423L66.724,288H56a40.045,40.045,0,0,0-40,40,8.045,8.045,0,0,0,.108,1.315l16,96A8,8,0,0,0,40,432H440a8,8,0,0,0,7.845-6.431l15.728-78.642.487-.81A168,168,0,0,0,488,259.68V223.76a104.284,104.284,0,0,0-19.346-60.366l25.465-30.241A8,8,0,0,0,495.774,126.113ZM266.886,96H360a151.228,151.228,0,0,1,58.461,11.692l18.531,7.722-71.918,130.76a55.967,55.967,0,0,0-99.69-13.162,39.943,39.943,0,0,0-20.735-15.9L131.294,179.331A151.156,151.156,0,0,1,266.886,96ZM352,264a40,40,0,1,1-40-40A40.045,40.045,0,0,1,352,264Zm-96-8.936v22.818a24.119,24.119,0,0,1-11.652,20.579l-47.9,28.742,25.221-100.882,17.923,5.975h0A23.971,23.971,0,0,1,256,255.064ZM124.453,193.917l81.989,27.33L177.754,336H86.777l-6.5-39ZM46.777,416l-2.666-16H88a8,8,0,0,0,0-16H41.444l-9.436-56.615A24.03,24.03,0,0,1,56,304h9.222l6.886,41.315A8,8,0,0,0,80,352H184a8.009,8.009,0,0,0,4.116-1.14l64.464-38.678a40.017,40.017,0,0,0,14.381-14.948A55.908,55.908,0,0,0,352,303.139V344a8,8,0,0,0,8,8h86.241l-6.4,32H120a8,8,0,0,0,0,16H436.641l-3.2,16ZM472,223.76v35.92A151.989,151.989,0,0,1,451.428,336H368V282.92L457.951,176.1A88.249,88.249,0,0,1,472,223.76ZM393.329,228l58.519-106.4,23.007,9.585Z" data-original="#000000" class="active-path" data-old_color="#000000" fill="#202095"/><path d="M312,240a24,24,0,1,0,24,24A24.028,24.028,0,0,0,312,240Zm0,32a8,8,0,1,1,8-8A8.009,8.009,0,0,1,312,272Z" data-original="#000000" class="active-path" data-old_color="#000000" fill="#202095"/><path d="M120,280a7.974,7.974,0,0,0,5.657-2.343l16-16a8,8,0,0,0-11.314-11.314l-16,16A8,8,0,0,0,120,280Z" data-original="#000000" class="active-path" data-old_color="#000000" fill="#202095"/><path d="M122.343,317.657a8,8,0,0,0,11.314,0l48-48a8,8,0,1,0-11.314-11.314l-48,48A8,8,0,0,0,122.343,317.657Z" data-original="#000000" class="active-path" data-old_color="#000000" fill="#202095"/></g> </svg>
