<?xml version="1.0"?>
<svg xmlns="http://www.w3.org/2000/svg" xmlns:xlink="http://www.w3.org/1999/xlink" xmlns:svgjs="http://svgjs.com/svgjs" version="1.1" width="512" height="512" x="0" y="0" viewBox="0 0 512 512" style="enable-background:new 0 0 512 512" xml:space="preserve" class=""><g><g xmlns="http://www.w3.org/2000/svg" id="Outline"><path d="M24,496H488a8,8,0,0,0,8-8V448H480v32H400V368h80v64h16V360a8,8,0,0,0-8-8h-8V192a7.951,7.951,0,0,0-1.607-4.795l.007-.005-22.51-30.013A40.045,40.045,0,0,0,416,120H240v16h16v16H208V136h16V120H176a40.045,40.045,0,0,0-39.89,37.187L113.6,187.2l.007.005A7.951,7.951,0,0,0,112,192V336h16V312h16v24h16V312h48v40H96V136h16a40.071,40.071,0,0,0,39.2-32H200a32.059,32.059,0,0,0,30.988-24H248a56.063,56.063,0,0,0,56-56H288a40.045,40.045,0,0,1-40,40H224a8,8,0,0,0-8,8,16.019,16.019,0,0,1-16,16H144a8,8,0,0,0-8,8,24.028,24.028,0,0,1-24,24H32A32.036,32.036,0,0,1,64,88a8,8,0,0,0,8-8,32.036,32.036,0,0,1,32-32V32A48.074,48.074,0,0,0,56.574,72.573,48.077,48.077,0,0,0,16,120v32H32V136H80v16H48v16H80V352H32V168H16V488A8,8,0,0,0,24,496Zm80-16H72V416h32Zm48,0H120V416h32ZM464,352H384V312h16v24h16V312h48Zm-80-56V256h16v40Zm80,0H416V256h48ZM400,136h16a24.042,24.042,0,0,1,22.629,16H400Zm4,32h40l12,16H392Zm-68-32h48v16H336Zm48,32-14.4,19.2.007.005A7.951,7.951,0,0,0,368,192v16h16v-8h80v40H416V216H400v24H384V224H368V352H352V192a7.951,7.951,0,0,0-1.607-4.795l.007-.005L336,168ZM272,312v24h16V312h48v40H256V312Zm-16-16V256h16v40Zm32,0V256h48v40Zm0-56V216H272v24H256V200h80v40ZM272,136h48v16H272Zm4,32h40l12,16H264Zm-20,0-14.4,19.2.007.005A7.951,7.951,0,0,0,240,192V352H224V192a7.951,7.951,0,0,0-1.607-4.795l.007-.005L208,168Zm-80-32h16v16H153.371A24.042,24.042,0,0,1,176,136Zm-28,32h40l12,16H136Zm-4,128H128V256h16Zm0-80v24H128V200h80v40H160V216Zm16,80V256h48v40ZM32,368H384V480H168V408a8,8,0,0,0-8-8H64a8,8,0,0,0-8,8v72H32Zm168,80h32a8,8,0,0,0,8-8V408a8,8,0,0,0-8-8H200a8,8,0,0,0-8,8v32A8,8,0,0,0,200,448Zm8-32h16v16H208Zm56,32h32a8,8,0,0,0,8-8V408a8,8,0,0,0-8-8H264a8,8,0,0,0-8,8v32A8,8,0,0,0,264,448Zm8-32h16v16H272Zm56,32h32a8,8,0,0,0,8-8V408a8,8,0,0,0-8-8H328a8,8,0,0,0-8,8v32A8,8,0,0,0,328,448Zm8-32h16v16H336Zm88-16a8,8,0,0,0-8,8v32a8,8,0,0,0,8,8h32a8,8,0,0,0,8-8V408a8,8,0,0,0-8-8Zm24,32H432V416h16ZM176,48H120V32h56a16.019,16.019,0,0,0,16-16h16A32.036,32.036,0,0,1,176,48ZM128,64V80a16.019,16.019,0,0,0-16,16H96A32.036,32.036,0,0,1,128,64Z" fill="#3f6dab" data-original="#000000" style=""/></g></g></svg>
