<?xml version="1.0"?>
<svg xmlns="http://www.w3.org/2000/svg" xmlns:xlink="http://www.w3.org/1999/xlink" version="1.1" id="Capa_1" x="0px" y="0px" viewBox="0 0 49.86 49.86" style="enable-background:new 0 0 49.86 49.86;" xml:space="preserve" width="512" height="512" class=""><g><g>
	<path style="fill:#3F6DAB" d="M8.68,3v43.86c0,1.657,1.343,3,3,3h26.5c1.657,0,3-1.343,3-3V3c0-1.657-1.343-3-3-3h-26.5   C10.023,0,8.68,1.343,8.68,3z M16.513,7.088H33.18c1.657,0,3,1.343,3,3v26.667c0,1.657-1.343,3-3,3H16.513c-1.657,0-3-1.343-3-3   V10.088C13.513,8.431,14.857,7.088,16.513,7.088z M20.18,45.861h-6.75c-0.552,0-1-0.448-1-1s0.448-1,1-1h6.75c0.552,0,1,0.448,1,1   C21.18,45.413,20.732,45.861,20.18,45.861z M24.93,48.088c-1.588,0-2.875-1.287-2.875-2.875s1.287-2.875,2.875-2.875   c1.588,0,2.875,1.287,2.875,2.875S26.518,48.088,24.93,48.088z M36.18,45.861h-6.75c-0.552,0-1-0.448-1-1s0.448-1,1-1h6.75   c0.552,0,1,0.448,1,1C37.18,45.413,36.732,45.861,36.18,45.861z" data-original="#010002" class="active-path" data-old_color="#010002"/>
</g></g> </svg>
