<?xml version="1.0"?>
<svg xmlns="http://www.w3.org/2000/svg" id="Capa_1" enable-background="new 0 0 512 512" height="512px" viewBox="0 0 512 512" width="512px" class=""><g><g><path d="m451.952 195.144v-60.048h-241.832v60.048h-30.024v30.024h-15.023c-24.826 0-45.024 20.198-45.024 45.024v196.783c0 8.284-6.74 15.024-15.024 15.024s-15.025-6.739-15.025-15.023v-271.88h29.976v-30h-29.976v-45h-30v45h-29.976v30h29.976v271.88c0 24.826 20.197 45.024 45.023 45.024s45.024-20.198 45.024-45.024v-196.784c0-8.284 6.74-15.024 15.024-15.024h15.023v256.832h301.88v-316.856zm-211.832-30.048h181.832v30.048h-181.832zm211.856 316.904h-241.88v-256.856h241.88z" data-original="#000000" class="active-path" data-old_color="#000000" fill="#3E5D9B"/><path d="m273.547 83.845 21.215 21.213c9.709-9.71 22.592-15.058 36.274-15.058 13.684 0 26.566 5.347 36.275 15.056l21.213-21.213c-15.375-15.375-35.791-23.843-57.488-23.843s-42.113 8.469-57.489 23.845z" data-original="#000000" class="active-path" data-old_color="#000000" fill="#3E5D9B"/><path d="m331.037 30c29.684 0 57.626 11.595 78.681 32.648l21.213-21.213c-26.721-26.72-62.198-41.435-99.894-41.435-37.698 0-73.176 14.716-99.896 41.438l21.213 21.213c21.055-21.055 48.999-32.651 78.683-32.651z" data-original="#000000" class="active-path" data-old_color="#000000" fill="#3E5D9B"/><path d="m331.036 444.464c50.118 0 90.892-40.773 90.892-90.892s-40.773-90.893-90.892-90.893-90.893 40.774-90.893 90.893 40.775 90.892 90.893 90.892zm0-30c-11.359 0-21.996-3.135-31.107-8.572l83.427-83.426c5.437 9.111 8.572 19.748 8.572 31.107 0 33.575-27.316 60.891-60.892 60.891zm0-121.784c11.359 0 21.996 3.135 31.107 8.573l-83.427 83.426c-5.437-9.111-8.572-19.748-8.572-31.107 0-33.576 27.316-60.892 60.892-60.892z" data-original="#000000" class="active-path" data-old_color="#000000" fill="#3E5D9B"/></g></g> </svg>
