<?xml version="1.0"?>
<svg xmlns="http://www.w3.org/2000/svg" id="icons" enable-background="new 0 0 64 64" height="512px" viewBox="0 0 64 64" width="512px"><g><g><g><path d="m63 47.482h-62c-.553 0-1-.447-1-1s.447-1 1-1h62c.553 0 1 .447 1 1s-.447 1-1 1z" data-original="#000000" class="active-path" data-old_color="#000000" fill="#3E5D9B"/></g><g><path d="m49.996 43.518h-46.997c-.553 0-1-.447-1-1v-10.994c0-.553.447-1 1-1h46.997c.553 0 1 .447 1 1v10.993c0 .553-.447 1.001-1 1.001zm-45.997-2h44.997v-8.992h-44.997z" data-original="#000000" class="active-path" data-old_color="#000000" fill="#3E5D9B"/></g><g><path d="m49.996 32.524h-46.997c-.404 0-.77-.243-.924-.617-.155-.374-.069-.804.217-1.09l11.004-11.007c.188-.188.441-.293.707-.293h46.997c.404 0 .77.243.924.617.155.374.069.804-.217 1.09l-11.004 11.007c-.187.188-.441.293-.707.293zm-44.583-2h44.169l9.004-9.008h-44.169z" data-original="#000000" class="active-path" data-old_color="#000000" fill="#3E5D9B"/></g><g><path d="m49.996 43.518c-.256 0-.512-.098-.707-.293-.391-.391-.391-1.023 0-1.414l11.005-11.004c.392-.391 1.022-.391 1.414 0s.392 1.023 0 1.414l-11.005 11.004c-.195.195-.451.293-.707.293z" data-original="#000000" class="active-path" data-old_color="#000000" fill="#3E5D9B"/></g><g><path d="m61.001 32.514c-.553 0-1-.447-1-1v-10.996c0-.553.447-1 1-1 .554 0 1 .447 1 1v10.996c0 .551-.446 1-1 1z" data-original="#000000" class="active-path" data-old_color="#000000" fill="#3E5D9B"/></g><g><path d="m14.003 32.524c-.553 0-1-.447-1-1v-11.006c0-.553.447-1 1-1s1 .447 1 1v11.008c0 .552-.447.998-1 .998z" data-original="#000000" class="active-path" data-old_color="#000000" fill="#3E5D9B"/></g><g><path d="m49.996 62.498h-46.997c-.404 0-.77-.244-.924-.617-.155-.375-.069-.805.217-1.09l11.004-11.008c.188-.189.441-.293.707-.293h46.997c.404 0 .77.242.924.617.155.373.069.803-.217 1.09l-11.004 11.008c-.187.188-.441.293-.707.293zm-44.583-2h44.169l9.004-9.008h-44.169z" data-original="#000000" class="active-path" data-old_color="#000000" fill="#3E5D9B"/></g><g><path d="m14.003 62.494c-.553 0-1-.447-1-1v-11.004c0-.553.447-1 1-1s1 .447 1 1v11.004c0 .553-.447 1-1 1z" data-original="#000000" class="active-path" data-old_color="#000000" fill="#3E5D9B"/></g><g><path d="m32 32.528c-.553 0-1-.447-1-1v-29.026c0-.553.447-1 1-1s1 .447 1 1v29.026c0 .554-.447 1-1 1z" data-original="#000000" class="active-path" data-old_color="#000000" fill="#3E5D9B"/></g><g><path d="m39.001 16.5c-.553 0-1-.447-1-1v-9c0-.553.447-1 1-1 .554 0 1 .447 1 1v9c0 .553-.446 1-1 1z" data-original="#000000" class="active-path" data-old_color="#000000" fill="#3E5D9B"/></g><g><path d="m39.001 16.5c-.256 0-.513-.098-.707-.293-.392-.391-.392-1.023 0-1.414l2-2c.392-.391 1.022-.391 1.414 0s.392 1.023 0 1.414l-2 2c-.194.194-.451.293-.707.293z" data-original="#000000" class="active-path" data-old_color="#000000" fill="#3E5D9B"/></g><g><path d="m39.001 16.5c-.256 0-.513-.098-.707-.293l-2-2c-.392-.391-.392-1.023 0-1.414s1.022-.391 1.414 0l2 2c.392.391.392 1.023 0 1.414-.194.194-.451.293-.707.293z" data-original="#000000" class="active-path" data-old_color="#000000" fill="#3E5D9B"/></g><g><path d="m24.987 16.5c-.553 0-1-.447-1-1v-9c0-.553.447-1 1-1s1 .447 1 1v9c0 .553-.447 1-1 1z" data-original="#000000" class="active-path" data-old_color="#000000" fill="#3E5D9B"/></g><g><path d="m24.987 16.5c-.256 0-.512-.098-.707-.293-.391-.391-.391-1.023 0-1.414l2-2c.391-.391 1.023-.391 1.414 0s.391 1.023 0 1.414l-2 2c-.195.194-.451.293-.707.293z" data-original="#000000" class="active-path" data-old_color="#000000" fill="#3E5D9B"/></g><g><path d="m24.987 16.5c-.256 0-.512-.098-.707-.293l-2-2c-.391-.391-.391-1.023 0-1.414s1.023-.391 1.414 0l2 2c.391.391.391 1.023 0 1.414-.195.194-.451.293-.707.293z" data-original="#000000" class="active-path" data-old_color="#000000" fill="#3E5D9B"/></g></g></g> </svg>
