<?xml version="1.0"?>
<svg xmlns="http://www.w3.org/2000/svg" id="Layer_1_1_" enable-background="new 0 0 64 64" height="512px" viewBox="0 0 64 64" width="512px"><g><path d="m55.8 19.4c-.189-.252-.485-.4-.8-.4h-9v-7c0-.552-.448-1-1-1h-35v2h34v26h-9v-12h1c.433 0 .817-.279.951-.691s-.013-.863-.363-1.118l-2.588-1.882v-5.309c0-.552-.448-1-1-1h-4c-.552 0-1 .448-1 1v.945l-2.412-1.754c-.352-.255-.826-.255-1.177 0l-11 8c-.35.254-.497.706-.363 1.118.135.412.519.691.952.691h1v8h-4v2h4v2h-8v2h37v2h-40v-2c.552 0 1-.448 1-1v-27h3v-2h-4c-.552 0-1 .448-1 1v27c-.552 0-1 .448-1 1v4c0 .552.448 1 1 1h2.073c-.042.332-.073.666-.073 1 0 4.411 3.589 8 8 8s8-3.589 8-8c0-.334-.031-.668-.073-1h24.073.073c-.042.332-.073.666-.073 1 0 4.411 3.589 8 8 8s8-3.589 8-8c0-.334-.031-.668-.073-1h.073c.552 0 1-.448 1-1v-16c0-.216-.07-.427-.2-.6zm-30.8-.164 3.412 2.481c.305.222.708.253 1.042.083.335-.171.546-.515.546-.891v-1.909h2v4.818c0 .32.153.621.412.809l.513.373h-15.85zm-8 7.764h16v12h-4v-7c0-.552-.448-1-1-1h-6c-.552 0-1 .448-1 1v7h-4zm10 12h-4v-6h4zm-12 7c0 1.103-.897 2-2 2s-2-.897-2-2c0-.415.129-.743.284-1h3.432c.155.257.284.585.284 1zm4 0c0 3.309-2.691 6-6 6s-6-2.691-6-6c0-.334.037-.668.094-1h2.052c-.086.326-.146.659-.146 1 0 2.206 1.794 4 4 4s4-1.794 4-4c0-.341-.06-.674-.146-1h2.052c.057.332.094.666.094 1zm29-25v7c0 .552.448 1 1 1h6v-2h-5v-6h4.5l4.5 6h-2v2h3v14h-14v-22zm7 25c0 1.103-.897 2-2 2s-2-.897-2-2c0-.415.129-.743.284-1h3.432c.155.257.284.585.284 1zm4 0c0 3.309-2.691 6-6 6s-6-2.691-6-6c0-.334.037-.668.094-1h2.052c-.086.326-.146.659-.146 1 0 2.206 1.794 4 4 4s4-1.794 4-4c0-.341-.06-.674-.146-1h2.052c.057.332.094.666.094 1z" data-original="#000000" class="active-path" data-old_color="#000000" fill="#3E5D9B"/><path d="m49 32h3v2h-3z" data-original="#000000" class="active-path" data-old_color="#000000" fill="#3E5D9B"/><path d="m7 35h2v2h-2z" data-original="#000000" class="active-path" data-old_color="#000000" fill="#3E5D9B"/></g> </svg>
