<?xml version="1.0"?>
<svg xmlns="http://www.w3.org/2000/svg" id="Capa_1" enable-background="new 0 0 512 512" height="512px" viewBox="0 0 512 512" width="512px"><g><g><path d="m510.612 307.94-33.439-65.598c-1.244-2.459-3.236-4.584-5.566-6.128l14.943-127.123c2.712-22.843-13.037-41.776-38.311-46.097-4.17-.906-13.337-2.766-24.015-4.896l4.156-21.399c.664-3.384-.043-6.828-1.991-9.698-1.942-2.861-4.871-4.784-8.192-5.403l-81.702-15.848c-3.376-.662-6.806.041-9.668 1.979-2.844 1.926-4.772 4.835-5.43 8.197l-4.184 21.435c-10.665-2.009-19.833-3.707-24.046-4.425-20.233-4.371-38.948 2.856-48.207 17.845-1.805-.441-3.689-.681-5.628-.681h-4.18v-26.58c0-4.15-3.36-7.5-7.5-7.5h-33.309c-1.29 0-2.56.33-3.68.96l-16.359 9.22c-3.6 2.03-4.88 6.6-2.85 10.21 2.04 3.61 6.61 4.89 10.22 2.86l14.64-8.25h23.839v19.079h-4.18c-13.089 0-23.739 10.66-23.739 23.779v8.74h-6.73c-10.06 0-18.249 8.19-18.249 18.249v49.538c-2.05-.16-4.04-.36-5.98-.56-10.72-1.09-20.849-2.13-33.609 4.23-12.829 6.28-18.179 14.939-23.839 24.119-5.74 9.29-12.16 19.689-28.369 32.109-5.21-10.31-13.51-16.559-22.849-17.169-7.8-.5-15.059 3.07-19.409 9.58-5.25 7.87-5.28 18.409-.1 28.909 1.25 2.54 2.59 5.01 4.03 7.39-.92 1.01-1.7 2.12-2.3 3.31l-33.479 65.667c-1.85 3.7-1.8 7.63.15 10.77 1.83 2.96 5.14 4.73 8.85 4.73h11.839v81.617c0 4.15 3.36 7.5 7.5 7.5s7.5-3.35 7.5-7.5v-81.617h176.004c5.34 0 11.1-3.67 13.69-8.74l21.609-42.428v219.172h-211.303v-51.728c0-4.15-3.36-7.5-7.5-7.5s-7.5 3.35-7.5 7.5v54.488c0 6.75 5.49 12.24 12.23 12.24h443.154c6.74 0 12.23-5.49 12.23-12.24v-170.765h11.829c3.74 0 7.06-1.78 8.89-4.77 1.939-3.169 1.969-7.099.089-10.779zm-174.897-287.071 77.543 15.04-3.741 19.262c-16.682-3.294-61.723-12.01-77.564-15.026zm-45.581 26.757c.116.025 49.935 9.318 68.965 13.023l-34.313 143.066c-.966 4.028 1.516 8.076 5.544 9.042.588.141 1.176.209 1.755.209 3.389 0 6.462-2.313 7.287-5.753l34.463-143.689c17.762 3.458 71.619 14.212 71.739 14.232 14.442 2.424 28.107 12.507 26.082 29.577l-14.842 126.251h-30.219l10.7-99.046c.398-3.823-2.251-7.439-6.031-8.169l-33.787-6.55c-4.075-.794-8.002 1.87-8.791 5.935-.788 4.066 1.869 8.002 5.935 8.79l27.013 5.237-10.139 93.803h-123.455v-119.693l20.273 3.923c.481.093.961.138 1.433.138 3.521 0 6.662-2.491 7.355-6.076.787-4.066-1.872-8.001-5.938-8.788l-23.281-4.505c-1.129-8.984-8.796-15.965-18.08-15.965h-6.73v-8.74c0-5.74-2.039-11.009-5.428-15.121 6.668-11.1 20.59-13.743 32.49-11.131zm-82.901 26.252c0-4.84 3.92-8.78 8.74-8.78h23.359c1.775 0 3.425.537 4.805 1.454.056.041.114.078.171.118 2.271 1.587 3.763 4.225 3.763 7.208v8.74h-40.839v-8.74zm-90.636 112.186c5.25-8.52 8.72-14.139 17.709-18.539 8.92-4.44 15.499-3.77 25.449-2.76 12.1 1.24 26.939 2.75 50.988-4.2l11.12 22.529c.04.08.07.16.11.24-20.189 5.47-31.349 3.53-41.318 1.78-9.87-1.73-19.199-3.36-32.299 3.16-13.069 6.41-18.489 15.749-24.219 25.639-3.44 5.93-7.3 12.57-13.45 19.669h-23.729l-4.74-9.6c20.149-14.859 27.989-27.558 34.379-37.918zm99.616-47.508c-2.83-5.73-3.15-10.96-.88-14.349 1.41-2.1 3.66-3.21 6.19-3.05 4.06.27 8 3.7 10.83 9.43 9.43 19.109 10.41 37.609 7.06 55.888-1.12-3.4-2.49-6.74-4.1-10.01zm7.56 95.027h-94.176c3.03-4.41 5.41-8.51 7.51-12.14 5.35-9.22 8.87-15.299 17.889-19.719 8.73-4.34 14.129-3.4 23.069-1.83 10.57 1.85 24.689 4.31 48.778-2.34 2.44 11.669 1.42 23.999-3.07 36.029zm-178.094-22.54c1.35-2.03 3.53-3.1 5.96-2.94 3.95.25 7.8 3.61 10.55 9.18l8.04 16.299h-18.81c-1.75-2.71-3.39-5.58-4.86-8.58-2.76-5.579-3.08-10.669-.88-13.959zm167.854 96.857c-.11.18-.295.547-.71.59h-194.893l30.249-59.338c.11-.18.29-.55 1.06-.57h194.523zm26.479-74.317c11.71-27.889 26.419-67.827 5.79-109.636-5.25-10.65-13.739-17.129-23.299-17.759-7.9-.52-15.239 3.1-19.639 9.68-5.32 7.97-5.36 18.649-.11 29.329l.88 1.77c-8.32 2.22-15.279 3.27-21.379 3.66v-49.758c0-1.76 1.49-3.25 3.25-3.25h84.297c1.76 0 3.24 1.49 3.24 3.25v132.715h-33.03zm167.494 74.877s0 0-.01 0c-4.14 0-7.49 3.36-7.5 7.5 0 4.14 3.36 7.5 7.5 7.5l67.308.03v168.004h-211.313v-219.173l21.629 42.428c2.58 5.07 8.35 8.74 13.71 8.74l74.037-.03c4.14 0 7.5-3.36 7.5-7.5-.01-4.14-3.36-7.5-7.5-7.5-.01 0-.01 0-.01 0l-73.667.03c-.425-.117-.62-.41-.71-.55l-30.249-59.358h194.893c.31 0 .54.11.68.55l30.259 59.358z" data-original="#000000" class="active-path" data-old_color="#000000" fill="#3F6DAB"/></g></g> </svg>
